<svg width="128" height="50" viewBox="0 0 128 50" fill="none" xmlns="http://www.w3.org/2000/svg">
<path d="M53.2406 17.741C53.7919 18.2539 54.0675 18.9431 54.0675 19.8141C54.0717 20.3261 53.9439 20.8305 53.6964 21.2789C53.4425 21.7344 53.0646 22.1088 52.6065 22.3586C52.0746 22.64 51.4788 22.7789 50.8771 22.7617H49.5062V26.0602H48.1875V16.9727H50.8771C51.9027 16.9727 52.6906 17.2288 53.2406 17.741ZM52.1453 21.1601C52.3276 20.9874 52.4703 20.7774 52.5636 20.5444C52.6568 20.3115 52.6985 20.0611 52.6858 19.8105C52.6858 19.2058 52.5056 18.765 52.1669 18.4932C51.7596 18.2008 51.2645 18.056 50.7636 18.083H49.5026V21.6568H50.7636C51.2707 21.6769 51.7658 21.5002 52.1453 21.1637V21.1601Z" fill="#002C6D"/>
<path d="M61.4721 22.8859H56.2064C56.2119 23.1905 56.2806 23.4907 56.4084 23.7673C56.5362 24.044 56.7202 24.291 56.9487 24.4928C57.4478 24.8966 58.0779 25.1035 58.7195 25.0741C59.5317 25.0739 60.327 24.843 61.0128 24.4083L61.1155 25.5222C60.3675 25.9769 59.5048 26.2079 58.6294 26.188C57.9419 26.2052 57.2609 26.0512 56.6478 25.7399C56.1042 25.4609 55.654 25.0294 55.3525 24.4982C55.0465 23.942 54.8918 23.3153 54.904 22.6807C54.8947 22.048 55.0446 21.4231 55.3399 20.8632C55.617 20.3399 56.0343 19.9038 56.5451 19.6036C57.0735 19.2963 57.6758 19.1389 58.2871 19.1483C58.8803 19.1348 59.4659 19.2835 59.9805 19.5784C60.4598 19.8554 60.8522 20.2605 61.1137 20.7481C61.3865 21.2601 61.5253 21.8327 61.5172 22.4126C61.5206 22.5716 61.5055 22.7304 61.4721 22.8859ZM60.1769 21.9519C60.1419 21.4741 59.9322 21.0257 59.5878 20.6923C59.4154 20.529 59.2124 20.4013 58.9904 20.3167C58.7684 20.2321 58.5318 20.1921 58.2943 20.1992C57.8135 20.1939 57.347 20.3627 56.9811 20.6743C56.5957 21.0012 56.3402 21.455 56.2605 21.9537L60.1769 21.9519Z" fill="#002C6D"/>
<path d="M67.0193 19.3154L66.9166 20.4923C66.6464 20.4117 66.3664 20.3687 66.0844 20.3645C65.87 20.3619 65.6578 20.4078 65.4638 20.4988C65.2697 20.5898 65.0988 20.7235 64.9639 20.8899C64.6512 21.2659 64.4889 21.744 64.5081 22.2324V26.0599H63.2236V19.2866H64.364L64.454 20.3987C64.8371 19.5709 65.4052 19.157 66.1582 19.157C66.4532 19.1491 66.7465 19.203 67.0193 19.3154Z" fill="#002C6D"/>
<path d="M67.3154 20.3521L67.4307 19.2904H68.481V18.7649C68.481 17.9623 68.6731 17.3523 69.0575 16.9348C69.2595 16.723 69.5049 16.5573 69.777 16.4489C70.049 16.3405 70.3412 16.292 70.6337 16.3068C70.868 16.3061 71.1017 16.3302 71.3309 16.3788C71.5238 16.4153 71.7114 16.4757 71.8894 16.5587L71.6588 17.5826C71.533 17.5254 71.4021 17.4803 71.2679 17.4477C71.1231 17.4102 70.9742 17.3908 70.8247 17.3901C70.6743 17.3804 70.5238 17.4067 70.3856 17.4668C70.2475 17.5269 70.1256 17.619 70.0302 17.7356C69.8525 17.9659 69.763 18.3456 69.7618 18.8747V19.2868H71.3633L71.2606 20.3485H69.7618V26.0601H68.481V20.3521H67.3154Z" fill="#002C6D"/>
<path d="M73.7728 25.7324C73.237 25.4395 72.7935 25.0033 72.492 24.4728C72.1792 23.9213 72.02 23.2962 72.0308 22.6625C72.0203 22.0287 72.1795 21.4037 72.492 20.8521C72.7935 20.3216 73.237 19.8854 73.7728 19.5925C74.3519 19.2933 74.9944 19.1372 75.6463 19.1372C76.2983 19.1372 76.9408 19.2933 77.5199 19.5925C78.0578 19.8832 78.5024 20.3198 78.8025 20.8521C79.1121 21.4066 79.2694 22.0331 79.2583 22.6678C79.2689 23.3007 79.1124 23.9251 78.8043 24.4782C78.5042 25.0105 78.0596 25.4471 77.5217 25.7378C76.9426 26.037 76.3001 26.1931 75.6481 26.1931C74.9962 26.1931 74.3537 26.037 73.7746 25.7378L73.7728 25.7324ZM77.3019 24.3504C77.5154 24.1269 77.6816 23.8627 77.7905 23.5736C77.8995 23.2845 77.9489 22.9765 77.936 22.6678C77.9421 22.2458 77.8391 21.8293 77.637 21.4586C77.4485 21.1124 77.1663 20.8262 76.8227 20.6326C76.4602 20.4325 76.0514 20.3313 75.6373 20.3393C75.3304 20.3274 75.0242 20.3785 74.7379 20.4897C74.4516 20.6008 74.1911 20.7695 73.9728 20.9853C73.7575 21.2078 73.5896 21.4717 73.4794 21.7609C73.3692 22.0501 73.3188 22.3586 73.3315 22.6678C73.3241 23.0896 73.4259 23.5061 73.6269 23.8771C73.8163 24.2244 74.1006 24.5108 74.4466 24.7031C74.8111 24.9032 75.2215 25.0049 75.6373 24.9982C75.9446 25.0118 76.2514 24.9611 76.538 24.8496C76.8246 24.7381 77.0848 24.568 77.3019 24.3504Z" fill="#002C6D"/>
<path d="M84.7511 19.3153L84.6484 20.4922C84.3782 20.4116 84.0981 20.3686 83.8161 20.3644C83.6017 20.3618 83.3896 20.4077 83.1955 20.4987C83.0014 20.5897 82.8305 20.7234 82.6956 20.8899C82.383 21.2658 82.2206 21.7439 82.2398 22.2323V26.0598H80.959V19.2865H82.0993L82.1894 20.3986C82.5737 19.5708 83.1418 19.1569 83.8936 19.1569C84.1873 19.1495 84.4794 19.2034 84.7511 19.3153Z" fill="#002C6D"/>
<path d="M95.6502 19.8519C96.043 20.3144 96.2393 20.9658 96.2393 21.8116V26.0602H94.9459V22.1013C94.9459 21.5218 94.8306 21.0792 94.6 20.7768C94.4745 20.6223 94.3134 20.5003 94.1306 20.4214C93.9477 20.3424 93.7484 20.3088 93.5497 20.3234C93.2527 20.3228 92.9601 20.3951 92.6976 20.5339C92.4367 20.6665 92.2085 20.8552 92.0293 21.0864C91.8571 21.3026 91.7464 21.5612 91.7086 21.835V26.0602H90.4152V22.1013C90.4152 21.5218 90.2981 21.0792 90.0675 20.7768C89.9421 20.6222 89.781 20.5001 89.5981 20.4212C89.4153 20.3422 89.2159 20.3086 89.0172 20.3234C88.7008 20.3239 88.3902 20.4077 88.1165 20.5663C87.8378 20.7206 87.6005 20.9397 87.4247 21.2051C87.2573 21.4458 87.1657 21.7309 87.1617 22.0239V26.0602H85.8809V19.2869H87.0338L87.1365 20.4385C87.3859 20.0689 87.7114 19.7566 88.0913 19.5226C88.5105 19.273 88.9924 19.1481 89.4802 19.1627C89.9455 19.1466 90.4036 19.2811 90.7863 19.546C91.1537 19.8195 91.4214 20.2057 91.5483 20.6455C91.7901 20.2256 92.1232 19.8653 92.5229 19.591C92.9653 19.2948 93.4894 19.1444 94.0217 19.1609C94.7183 19.1609 95.2611 19.3912 95.6502 19.8519Z" fill="#002C6D"/>
<path d="M105.584 26.008C105.327 26.1283 105.047 26.1897 104.764 26.1879C104.592 26.1978 104.419 26.1723 104.257 26.1128C104.095 26.0534 103.947 25.9613 103.822 25.8424C103.579 25.5727 103.437 25.2276 103.418 24.8653C103.17 25.2605 102.827 25.5881 102.42 25.819C101.966 26.069 101.453 26.1933 100.934 26.1789C100.363 26.19 99.8012 26.039 99.3129 25.7434C98.845 25.451 98.4701 25.0316 98.232 24.5342C97.9689 23.9853 97.8376 23.3827 97.8483 22.7742C97.8369 22.1285 97.9763 21.4889 98.2554 20.9064C98.5161 20.3723 98.9251 19.9244 99.4336 19.6161C99.9694 19.2969 100.584 19.1348 101.208 19.1482C101.619 19.1393 102.027 19.2089 102.411 19.3534C102.753 19.49 103.073 19.6755 103.361 19.904L103.436 19.2904H104.604V24.23C104.592 24.4382 104.636 24.6456 104.732 24.8311C104.767 24.897 104.82 24.9519 104.884 24.9897C104.949 25.0275 105.023 25.0467 105.097 25.0452C105.225 25.042 105.351 25.0158 105.469 24.9678L105.584 26.008ZM103.303 20.9154C103.035 20.7169 102.739 20.5576 102.426 20.4421C102.09 20.3251 101.736 20.2685 101.381 20.2747C101.077 20.2602 100.773 20.3143 100.492 20.433C100.211 20.5517 99.9611 20.7319 99.7597 20.9603C99.3621 21.415 99.1634 22.0185 99.1634 22.7706C99.1399 23.3686 99.3381 23.9543 99.72 24.4154C99.9074 24.6303 100.141 24.8001 100.403 24.912C100.666 25.0239 100.95 25.075 101.235 25.0614C101.596 25.0654 101.953 24.9794 102.273 24.8113C102.573 24.6557 102.828 24.4266 103.015 24.1455C103.19 23.8975 103.29 23.6046 103.303 23.3015V20.9154Z" fill="#002C6D"/>
<path d="M112.446 19.852C112.867 20.3145 113.08 20.9659 113.08 21.8117V26.0603H111.785V22.1014C111.785 21.531 111.659 21.0901 111.408 20.7842C111.269 20.6262 111.096 20.5024 110.901 20.4225C110.706 20.3426 110.496 20.3087 110.286 20.3235C109.929 20.3211 109.577 20.4063 109.261 20.5718C108.96 20.726 108.702 20.95 108.506 21.2251C108.326 21.468 108.227 21.7614 108.223 22.0636V26.0603H106.942V19.287H108.095L108.198 20.4513C108.459 20.0703 108.803 19.7529 109.203 19.5227C109.656 19.2722 110.167 19.1479 110.684 19.1628C111.435 19.1616 112.022 19.3914 112.446 19.852Z" fill="#002C6D"/>
<path d="M116.296 25.7652C115.794 25.4814 115.384 25.0591 115.116 24.5488C114.824 23.9792 114.679 23.3458 114.694 22.7061C114.68 22.0705 114.83 21.442 115.13 20.8814C115.41 20.3671 115.832 19.9446 116.346 19.6649C116.901 19.3711 117.521 19.2237 118.148 19.2366C118.541 19.2342 118.933 19.2838 119.313 19.3842C119.651 19.4696 119.974 19.601 120.275 19.7747L120.045 20.8742C119.501 20.5287 118.87 20.3469 118.225 20.3505C117.927 20.3376 117.63 20.3879 117.353 20.498C117.075 20.6081 116.825 20.7755 116.617 20.9893C116.197 21.4549 115.978 22.0674 116.008 22.6935C115.977 23.3266 116.196 23.9466 116.617 24.421C116.816 24.6358 117.059 24.8053 117.33 24.9181C117.601 25.0308 117.893 25.084 118.186 25.0742C118.888 25.0794 119.577 24.8792 120.167 24.4984L120.283 25.5997C119.97 25.7914 119.631 25.9357 119.276 26.028C118.864 26.1375 118.44 26.1913 118.015 26.1881C117.414 26.2009 116.822 26.055 116.296 25.7652Z" fill="#002C6D"/>
<path d="M127.852 22.8856H122.586C122.592 23.1902 122.66 23.4904 122.788 23.767C122.916 24.0437 123.1 24.2907 123.328 24.4926C123.827 24.8956 124.456 25.1024 125.097 25.0738C125.91 25.0736 126.705 24.8427 127.391 24.408L127.493 25.5219C126.745 25.9766 125.883 26.2076 125.007 26.1877C124.32 26.2049 123.639 26.0509 123.026 25.7396C122.482 25.4606 122.032 25.0291 121.73 24.498C121.424 23.9417 121.27 23.315 121.282 22.6805C121.273 22.0477 121.422 21.4228 121.718 20.863C121.995 20.3396 122.412 19.9035 122.923 19.6033C123.451 19.296 124.054 19.1386 124.665 19.148C125.253 19.1371 125.834 19.2857 126.344 19.5781C126.823 19.8551 127.216 20.2602 127.477 20.7478C127.756 21.2583 127.9 21.831 127.897 22.4123C127.9 22.5713 127.885 22.7301 127.852 22.8856ZM126.557 21.9517C126.522 21.4738 126.312 21.0255 125.968 20.692C125.795 20.5287 125.592 20.401 125.37 20.3164C125.148 20.2318 124.912 20.1919 124.674 20.1989C124.193 20.1936 123.727 20.3624 123.361 20.674C122.975 21.0009 122.72 21.4547 122.64 21.9535L126.557 21.9517Z" fill="#002C6D"/>
<path d="M50.4159 40.9641C49.7258 40.5861 49.1574 40.0201 48.7766 39.332C48.3853 38.5768 48.1832 37.7382 48.1876 36.8879C48.192 36.0376 48.4027 35.201 48.8018 34.4499C49.1966 33.7519 49.7787 33.1779 50.4826 32.7926C51.2201 32.3944 52.0475 32.1918 52.8857 32.2041C53.7637 32.1967 54.6359 32.3479 55.46 32.6504L55.0259 34.8404C54.4269 34.5987 53.7875 34.4723 53.1415 34.4679C52.821 34.4475 52.4998 34.4953 52.1992 34.6082C51.8985 34.7211 51.6253 34.8964 51.3976 35.1227C51.1699 35.349 50.9929 35.621 50.8783 35.9207C50.7638 36.2204 50.7142 36.541 50.733 36.8613C50.7133 37.5024 50.9469 38.1255 51.3833 38.596C51.8109 39.0531 52.3999 39.2816 53.1505 39.2816C53.8448 39.2734 54.5323 39.1449 55.1826 38.9019L55.4636 41.0775C54.6131 41.3996 53.7087 41.556 52.7993 41.5382C51.9686 41.555 51.1476 41.3573 50.4159 40.9641Z" fill="#002C6D"/>
<path d="M58.2696 41.0848C57.7066 40.796 57.236 40.3552 56.9113 39.8125C56.5925 39.2574 56.4248 38.6287 56.4248 37.9887C56.4248 37.3488 56.5925 36.72 56.9113 36.1649C57.2364 35.6222 57.7068 35.1809 58.2696 34.8909C58.8899 34.5878 59.5714 34.4302 60.262 34.4302C60.9526 34.4302 61.6341 34.5878 62.2544 34.8909C62.8133 35.177 63.2812 35.6133 63.6055 36.1505C63.9208 36.7081 64.0864 37.3376 64.0864 37.9779C64.0864 38.6183 63.9208 39.2478 63.6055 39.8053C63.284 40.348 62.8157 40.789 62.2544 41.0776C61.6341 41.3807 60.9526 41.5383 60.262 41.5383C59.5714 41.5383 58.8899 41.3807 58.2696 41.0776V41.0848ZM61.2672 39.0117C61.3969 38.8731 61.4976 38.71 61.5635 38.532C61.6293 38.3541 61.6591 38.1648 61.6509 37.9752C61.6583 37.7877 61.6281 37.6005 61.5623 37.4247C61.4964 37.2489 61.3961 37.088 61.2672 36.9513C61.1374 36.8193 60.9814 36.7159 60.8092 36.6477C60.637 36.5795 60.4525 36.5481 60.2674 36.5554C60.0796 36.5479 59.8923 36.5792 59.7171 36.6473C59.542 36.7154 59.3828 36.8189 59.2496 36.9513C58.9998 37.2379 58.8622 37.6051 58.8622 37.9851C58.8622 38.3651 58.9998 38.7323 59.2496 39.0189C59.3826 39.1498 59.5411 39.252 59.7152 39.3191C59.8894 39.3863 60.0755 39.417 60.262 39.4094C60.448 39.4163 60.6334 39.3845 60.8064 39.316C60.9794 39.2476 61.1364 39.144 61.2672 39.0117Z" fill="#002C6D"/>
<path d="M66.7587 41.1172C66.2285 40.8356 65.7935 40.4036 65.5085 39.8756C65.1971 39.2824 65.0427 38.6196 65.0599 37.9501C65.0421 37.2862 65.2086 36.6304 65.5409 36.0552C65.8553 35.5316 66.3162 35.1112 66.8668 34.846C67.4625 34.5617 68.1162 34.4194 68.7763 34.4303C69.1251 34.4308 69.4728 34.4676 69.814 34.54C70.1028 34.5919 70.383 34.684 70.6463 34.8136L70.3256 36.6707C69.9062 36.4855 69.4529 36.3893 68.9943 36.3881C68.7929 36.3777 68.5914 36.4093 68.4029 36.4809C68.2143 36.5524 68.0427 36.6624 67.899 36.8038C67.7591 36.9587 67.6514 37.1397 67.5821 37.3365C67.5128 37.5333 67.4834 37.7419 67.4955 37.9501C67.4727 38.3841 67.6222 38.8096 67.9116 39.1342C68.0566 39.2826 68.2314 39.3987 68.4245 39.4747C68.6177 39.5507 68.8248 39.5849 69.0321 39.5751C69.2863 39.5739 69.5397 39.548 69.7888 39.4977C70.0348 39.4525 70.276 39.3844 70.5093 39.2943L70.6751 41.1748C70.3804 41.3032 70.0704 41.3934 69.7527 41.4429C69.3765 41.5115 68.9948 41.5458 68.6124 41.5455C67.9683 41.56 67.331 41.4128 66.7587 41.1172Z" fill="#002C6D"/>
<path d="M76.6688 41.4211L75.1304 39.0026L74.3485 39.681V41.4211H71.9922V31.7938L74.3485 31.666V37.3093L76.5283 34.5704H79.2053L76.7319 37.5792L79.371 41.4211H76.6688Z" fill="#002C6D"/>
<path d="M86.3406 34.8711C86.8018 35.1764 87.1682 35.6047 87.3981 36.1074C87.6518 36.6916 87.7806 37.3223 87.7762 37.9591C87.7719 38.5958 87.6345 39.2247 87.3728 39.8054C87.1205 40.3326 86.7223 40.7766 86.2253 41.0848C85.7043 41.3993 85.1044 41.559 84.4959 41.5455C83.7201 41.5455 83.1094 41.3578 82.6638 40.9823V44.1062L80.3057 44.234V34.5706H82.5233L82.5737 35.3012C83.1286 34.7206 83.8588 34.4303 84.7643 34.4303C85.3217 34.419 85.8701 34.5724 86.3406 34.8711ZM84.9895 39.1396C85.2418 38.7913 85.3659 38.3667 85.3408 37.9375C85.3631 37.539 85.2459 37.1452 85.0093 36.8236C84.8939 36.6862 84.748 36.5776 84.5832 36.5063C84.4184 36.4351 84.2392 36.4033 84.0599 36.4133C83.6954 36.4035 83.3407 36.5321 83.0673 36.7732C82.94 36.8793 82.8377 37.0123 82.7679 37.1626C82.6982 37.3129 82.6626 37.4767 82.6638 37.6424V39.2295C83.0704 39.459 83.5299 39.5781 83.9969 39.5751C84.1849 39.5852 84.3727 39.5511 84.5451 39.4755C84.7176 39.3998 84.8698 39.2848 84.9895 39.1396Z" fill="#002C6D"/>
<path d="M89.2794 33.7066C89.1511 33.5953 89.0493 33.4568 88.9817 33.3011C88.914 33.1453 88.8822 32.9765 88.8885 32.8068C88.8824 32.6359 88.9142 32.4658 88.9818 32.3086C89.0494 32.1515 89.1511 32.0113 89.2794 31.8981C89.5617 31.6757 89.9107 31.5547 90.2702 31.5547C90.6297 31.5547 90.9788 31.6757 91.261 31.8981C91.3894 32.0113 91.491 32.1515 91.5586 32.3086C91.6262 32.4658 91.6581 32.6359 91.6519 32.8068C91.6582 32.9765 91.6264 33.1453 91.5587 33.3011C91.4911 33.4568 91.3894 33.5953 91.261 33.7066C90.9772 33.9255 90.6288 34.0442 90.2702 34.0442C89.9116 34.0442 89.5632 33.9255 89.2794 33.7066ZM91.452 34.5704V41.4085H89.0938V34.5704H91.452Z" fill="#002C6D"/>
<path d="M94.2333 40.8941C93.7697 40.4586 93.538 39.8053 93.538 38.9344V36.5159H92.4229L92.5652 34.5706H93.538L93.6659 32.5749L95.8961 32.4346V34.5706H97.7156L97.5733 36.5159H95.8961V38.3981C95.8961 38.7904 95.9717 39.064 96.1267 39.2169C96.2238 39.2996 96.3364 39.3621 96.458 39.4007C96.5795 39.4393 96.7076 39.4533 96.8347 39.4418C97.1056 39.4302 97.3733 39.3786 97.6291 39.2889L97.8345 41.182C97.2832 41.4315 96.6831 41.5544 96.078 41.5419C95.3082 41.5443 94.6933 41.3283 94.2333 40.8941Z" fill="#002C6D"/>
<path fill-rule="evenodd" clip-rule="evenodd" d="M28.2302 35.9618C30.111 34.0748 31.1652 31.5181 31.1608 28.8539L42.231 28.8506C42.231 34.4508 40.0064 39.8216 36.0464 43.7815C32.0869 47.7411 26.7167 49.9657 21.1171 49.9661V38.9156C21.1221 38.9156 21.127 38.9156 21.1319 38.9156C23.7961 38.9113 26.3495 37.8487 28.2302 35.9618ZM11.082 47.43C9.29718 46.4662 7.64494 45.2419 6.18459 43.7815C2.23318 39.8301 0.00957844 34.4739 3.08737e-05 28.8867H11.0702C11.0705 29.0442 11.0744 29.2014 11.082 29.358V47.43ZM3.08737e-05 28.8867C1.02929e-05 28.8747 0 28.8626 0 28.8506V28.8867H3.08737e-05Z" fill="#005EEF"/>
<path d="M11.0702 29.0566V29.0235C11.0702 26.3375 12.1286 23.7616 14.0124 21.8623C15.8963 19.9631 18.4513 18.8961 21.1155 18.8961V7.73535C15.5153 7.73535 10.1445 9.9782 6.18459 13.9705C2.22466 17.9628 0 23.3775 0 29.0235L0 29.0599L11.0702 29.0566Z" fill="#005EEF"/>
<path d="M35.9584 17.561H32.4043V21.1151H35.9584V17.561Z" fill="#4CE58A"/>
<path d="M29.2941 16.3296H26.3438V19.2799H29.2941V16.3296Z" fill="#005EEF"/>
<path d="M43.4846 11.7075H37.8398V17.3523H43.4846V11.7075Z" fill="#005EEF"/>
<path d="M53.3116 5.43555H48.085V11.0803H53.3116V5.43555Z" fill="#4CE58A"/>
<path d="M45.3664 0H37.2129V8.15352H45.3664V0Z" fill="#4CE58A"/>
<path fill-rule="evenodd" clip-rule="evenodd" d="M18.3953 36.1658C18.3852 36.0669 18.3854 35.9631 18.3966 35.8544C17.0911 33.5446 15.5854 31.171 13.7959 29.3203C13.7964 29.4433 13.7998 29.5656 13.8062 29.6871H13.7959V48.8664C15.2756 49.4132 16.8181 49.7947 18.3953 49.9995V36.1658Z" fill="#4CE58A"/>
<ellipse cx="21.4948" cy="29.1843" rx="7.5866" ry="7.58661" fill="white"/>
<path d="M34.7048 7.52637H27.8057V14.4255H34.7048V7.52637Z" fill="#005EEF"/>
<path fill-rule="evenodd" clip-rule="evenodd" d="M14.8814 25.1452C14.2738 26.1982 13.9346 27.3842 13.8945 28.5963L21.0477 28.5634L24.6503 22.3235C22.9889 21.4275 21.0396 21.221 19.2158 21.7478C17.392 22.2746 15.8372 23.4932 14.8814 25.1452ZM25.7046 22.9317L22.1239 29.1337L25.6518 35.31C26.712 34.6588 27.59 33.7455 28.2012 32.6583C28.8125 31.571 29.1364 30.3464 29.1417 29.1025C29.147 27.8586 28.8336 26.6374 28.2316 25.5565C27.6295 24.4757 26.7593 23.5717 25.7046 22.9317ZM24.5179 35.8959C22.1257 37.2115 19.7416 37.1475 17.486 35.8453C16.4263 35.2283 15.5436 34.3477 14.9218 33.287C14.3001 32.2263 13.9598 31.0208 13.9334 29.785L21.0069 29.7468L24.5179 35.8959Z" fill="#4CE58A"/>
</svg>
